<?xml version="1.0" encoding="UTF-8"?>
<!DOCTYPE svg PUBLIC "-//W3C//DTD SVG 1.1//EN" "http://www.w3.org/Graphics/SVG/1.1/DTD/svg11.dtd">
<svg version="1.1" xmlns="http://www.w3.org/2000/svg" xmlns:xlink="http://www.w3.org/1999/xlink" x="0" y="0" width="1000" height="1000" viewBox="0, 0, 1000, 1000">
  <g id="Layer_3" display="none">
    <path d="M504.5,648.5 C345.442,648.5 216.5,567.911 216.5,468.5 C216.5,369.089 345.442,288.5 504.5,288.5 C663.558,288.5 792.5,369.089 792.5,468.5 C792.5,567.911 663.558,648.5 504.5,648.5 z" fill-opacity="0" stroke="#000000" stroke-width="3" stroke-linecap="round"/>
    <path d="M792.5,540.5 C792.5,620.029 663.558,684.5 504.5,684.5" fill-opacity="0" stroke="#000000" stroke-width="3" stroke-linecap="round"/>
    <path d="M504.5,684.5 C345.442,684.5 216.5,614.656 216.5,528.5" fill-opacity="0" stroke="#000000" stroke-width="3" stroke-linecap="round"/>
  </g>
  <g id="Layer_5">
    <path d="M804.5,480.5 C804.5,526.892 799.127,564.5 792.5,564.5" fill-opacity="0" stroke="#000000" stroke-width="12" stroke-linecap="round"/>
    <path d="M216.5,564.5 C209.873,564.5 204.5,526.892 204.5,480.5" fill-opacity="0" stroke="#000000" stroke-width="12" stroke-linecap="round"/>
    <path d="M204.5,480.5 C203.924,441.3 235.901,418.725 268.082,404.236" fill-opacity="0" stroke="#000000" stroke-width="12" stroke-linecap="round"/>
    <path d="M216.5,564.5 C209.873,564.5 204.5,526.892 204.5,480.5" fill-opacity="0" stroke="#000000" stroke-width="12" stroke-linecap="round" id="Shape"/>
    <path d="M264.5,792.5 C237.99,792.5 216.5,690.421 216.5,564.5" fill-opacity="0" stroke="#000000" stroke-width="12" stroke-linecap="round" id="AShape"/>
    <path d="M740.631,404.089 C774.276,418.417 804.214,440.746 804.5,480.5" fill-opacity="0" stroke="#000000" stroke-width="12" stroke-linecap="round"/>
    <path d="M792.5,564.5 C792.5,690.421 765.637,792.5 732.5,792.5" fill-opacity="0" stroke="#000000" stroke-width="12" stroke-linecap="round"/>
    <path d="M504.5,816.5 C365.324,816.5 252.5,800.382 252.5,780.5" fill-opacity="0" stroke="#000000" stroke-width="12"/>
    <path d="M744.5,780.5 C744.5,800.382 637.048,816.5 504.5,816.5" fill-opacity="0" stroke="#000000" stroke-width="12"/>
  </g>
  <g id="Layer_6">
    <path d="M216.5,564.5 C221.897,569.048 228.5,600.5 252.5,600.5 C276.5,600.5 252.5,708.5 288.5,708.5 C312.5,708.5 312.5,576.5 336.5,576.5 C360.5,576.5 348.5,660.5 384.5,660.5 C408.5,660.5 408.5,600.5 432.5,600.5 C456.5,600.5 432.5,696.5 504.5,696.5 C576.5,696.5 552.5,576.5 588.5,576.5 C624.5,576.5 600.5,696.5 636.5,696.5 C672.5,696.5 635.117,590.609 684.5,576.5 C714.112,568.039 696.5,648.5 720.5,648.5 C744.5,648.5 733.309,595.153 744.5,576.5 C759.316,551.807 756.5,648.5 792.5,564.5" fill-opacity="0" stroke="#000000" stroke-width="10" stroke-linecap="round" stroke-linejoin="round"/>
  </g>
  <g id="Layer_7">
    <path d="M324.5,287.409 L324.5,348.5" fill-opacity="0" stroke="#000000" stroke-width="12" stroke-linecap="round"/>
    <path d="M396.5,287.409 L396.5,348.5" fill-opacity="0" stroke="#000000" stroke-width="12" stroke-linecap="round"/>
    <path d="M324.5,293.955 C324.5,288.532 340.618,284.136 360.5,284.136" fill-opacity="0" stroke="#000000" stroke-width="12" stroke-linecap="round"/>
    <path d="M396.5,293.955 C376.618,293.955 360.5,289.559 360.5,284.136" fill-opacity="0" stroke="#000000" stroke-width="12" stroke-linecap="round"/>
    <path d="M348.5,132.5 C360.5,144.5 348.5,180.5 336.5,168.5" fill-opacity="0" stroke="#000000" stroke-width="12" stroke-linecap="round"/>
    <path d="M312.5,204.5 C312.5,184.618 323.245,168.5 336.5,168.5" fill-opacity="0" stroke="#000000" stroke-width="12" stroke-linecap="round"/>
    <path d="M360.5,252.5 C333.99,252.5 312.5,231.01 312.5,204.5" fill-opacity="0" stroke="#000000" stroke-width="12" stroke-linecap="round"/>
    <path d="M396.5,216.5 C396.5,236.382 380.382,252.5 360.5,252.5" fill-opacity="0" stroke="#000000" stroke-width="12" stroke-linecap="round"/>
    <path d="M348.5,132.5 C372.5,132.5 396.5,168.5 396.5,216.5" fill-opacity="0" stroke="#000000" stroke-width="12" stroke-linecap="round"/>
    <path d="M612.5,287.409 L612.5,348.5" fill-opacity="0" stroke="#000000" stroke-width="12" stroke-linecap="round"/>
    <path d="M684.5,287.409 L684.5,348.5" fill-opacity="0" stroke="#000000" stroke-width="12" stroke-linecap="round"/>
    <path d="M612.5,293.955 C612.5,288.532 628.618,284.136 648.5,284.136" fill-opacity="0" stroke="#000000" stroke-width="12" stroke-linecap="round"/>
    <path d="M684.5,293.955 C664.618,293.955 648.5,289.559 648.5,284.136" fill-opacity="0" stroke="#000000" stroke-width="12" stroke-linecap="round"/>
    <path d="M636.5,132.5 C648.5,144.5 636.5,180.5 624.5,168.5" fill-opacity="0" stroke="#000000" stroke-width="12" stroke-linecap="round"/>
    <path d="M600.5,204.5 C600.5,184.618 611.245,168.5 624.5,168.5" fill-opacity="0" stroke="#000000" stroke-width="12" stroke-linecap="round"/>
    <path d="M648.5,252.5 C621.99,252.5 600.5,231.01 600.5,204.5" fill-opacity="0" stroke="#000000" stroke-width="12" stroke-linecap="round"/>
    <path d="M684.5,216.5 C684.5,236.382 668.382,252.5 648.5,252.5" fill-opacity="0" stroke="#000000" stroke-width="12" stroke-linecap="round"/>
    <path d="M636.5,132.5 C660.5,132.5 684.5,168.5 684.5,216.5" fill-opacity="0" stroke="#000000" stroke-width="12" stroke-linecap="round"/>
    <path d="M470.5,264.5 L470.5,348.5" fill-opacity="0" stroke="#000000" stroke-width="12" stroke-linecap="round"/>
    <path d="M542.5,264.5 L542.5,348.5" fill-opacity="0" stroke="#000000" stroke-width="12" stroke-linecap="round"/>
    <path d="M468.5,264.5 C468.5,257.873 484.618,252.5 504.5,252.5" fill-opacity="0" stroke="#000000" stroke-width="12" stroke-linecap="round"/>
    <path d="M540.5,264.5 C520.618,264.5 504.5,259.127 504.5,252.5" fill-opacity="0" stroke="#000000" stroke-width="12" stroke-linecap="round"/>
    <path d="M492.5,84.5 C504.5,96.5 492.5,132.5 480.5,120.5" fill-opacity="0" stroke="#000000" stroke-width="12" stroke-linecap="round"/>
    <path d="M456.5,156.5 C456.5,136.618 467.245,120.5 480.5,120.5" fill-opacity="0" stroke="#000000" stroke-width="12" stroke-linecap="round"/>
    <path d="M504.5,204.5 C477.99,204.5 456.5,183.01 456.5,156.5" fill-opacity="0" stroke="#000000" stroke-width="12" stroke-linecap="round"/>
    <path d="M540.5,168.5 C540.5,188.382 524.382,204.5 504.5,204.5" fill-opacity="0" stroke="#000000" stroke-width="12" stroke-linecap="round"/>
    <path d="M492.5,84.5 C516.5,84.5 540.5,120.5 540.5,168.5" fill-opacity="0" stroke="#000000" stroke-width="12" stroke-linecap="round"/>
  </g>
  <g id="．Layer_2_">
    <path d="M720.667,348 C733.553,348 744,359.753 744,374.25 L744,501.75 C744,516.247 733.553,528 720.667,528 L287.333,528 C274.447,528 264,516.247 264,501.75 L264,374.25 C264,359.753 274.447,348 287.333,348 L720.667,348 z M720.667,358 L287.333,358 C280.249,358 274,365.03 274,374.25 L274,501.75 C274,510.97 280.249,518 287.333,518 L720.667,518 C727.751,518 734,510.97 734,501.75 L734,374.25 C734,365.03 727.751,358 720.667,358 z" fill="#000000"/>
  </g>
  <g id="1．．Lay/er_1">
    <text transform="matrix(1, 0, 0, 1, 504, 443)">
      <tspan x="-227.5" y="34" font-family="HiraginoSans-W7" font-size="91" fill="#000000">長野ケーキ</tspan>
    </text>
  </g>
</svg>
