<?xml version="1.0" encoding="UTF-8"?>
<!DOCTYPE svg PUBLIC "-//W3C//DTD SVG 1.1//EN" "http://www.w3.org/Graphics/SVG/1.1/DTD/svg11.dtd">
<svg version="1.1" xmlns="http://www.w3.org/2000/svg" xmlns:xlink="http://www.w3.org/1999/xlink" x="0" y="0" width="800" height="400" viewBox="0, 0, 800, 400">
  <g id="Layer_1I">
    <g>
      <path d="M36.5,217.857 L393.495,217.857" fill="#FFFFFF"/>
      <path d="M36.5,217.857 L393.495,217.857" fill-opacity="0" stroke="#FFFFFF" stroke-width="12" stroke-linecap="round"/>
    </g>
    <g>
      <path d="M36.5,217.857 L216.248,125.254" fill="#FFFFFF"/>
      <path d="M36.5,217.857 L216.248,125.254" fill-opacity="0" stroke="#FFFFFF" stroke-width="12" stroke-linecap="round"/>
    </g>
    <g>
      <path d="M293.273,85.572 L312.93,75.446" fill="#FFFFFF"/>
      <path d="M293.273,85.572 L312.93,75.446" fill-opacity="0" stroke="#FFFFFF" stroke-width="12" stroke-linecap="round"/>
    </g>
    <g>
      <path d="M312.93,75.446 C365.934,90.214 393.052,154.032 396.5,214.936" fill="#FFFFFF"/>
      <path d="M312.93,75.446 C365.934,90.214 393.052,154.032 396.5,214.936" fill-opacity="0" stroke="#FFFFFF" stroke-width="12" stroke-linecap="round"/>
    </g>
    <g>
      <path d="M36.5,217.857 L36.5,362.5" fill="#FFFFFF"/>
      <path d="M36.5,217.857 L36.5,362.5" fill-opacity="0" stroke="#FFFFFF" stroke-width="12" stroke-linecap="round"/>
    </g>
    <g>
      <path d="M36.5,362.5 L180.5,362.5" fill="#FFFFFF"/>
      <path d="M36.5,362.5 L180.5,362.5" fill-opacity="0" stroke="#FFFFFF" stroke-width="12" stroke-linecap="round"/>
    </g>
    <g>
      <path d="M36.5,314.286 L180.702,314.286" fill="#FFFFFF"/>
      <path d="M36.5,314.286 L180.702,314.286" fill-opacity="0" stroke="#FFFFFF" stroke-width="12" stroke-linecap="round"/>
    </g>
    <g>
      <path d="M36.5,276.5 L180.5,276.5" fill="#FFFFFF"/>
      <path d="M36.5,276.5 L180.5,276.5" fill-opacity="0" stroke="#FFFFFF" stroke-width="12" stroke-linecap="round"/>
    </g>
    <g>
      <path d="M256.566,169.643 C250.346,169.745 245.087,168.319 239.219,166.077" fill="#FFFFFF"/>
      <path d="M256.566,169.643 C250.346,169.745 245.087,168.319 239.219,166.077" fill-opacity="0" stroke="#FFFFFF" stroke-width="12" stroke-linecap="round"/>
    </g>
    <g>
      <path d="M296.578,133.482 C296.578,153.453 278.664,169.643 256.566,169.643" fill="#FFFFFF"/>
      <path d="M296.578,133.482 C296.578,153.453 278.664,169.643 256.566,169.643" fill-opacity="0" stroke="#FFFFFF" stroke-width="12" stroke-linecap="round"/>
    </g>
    <g>
      <path d="M216.813,124.486 C217.896,101.423 220.613,77.888 231.412,57.409 C236.863,47.403 245.059,38.821 256.566,38.5" fill="#FFFFFF"/>
      <path d="M216.813,124.486 C217.896,101.423 220.613,77.888 231.412,57.409 C236.863,47.403 245.059,38.821 256.566,38.5" fill-opacity="0" stroke="#FFFFFF" stroke-width="12" stroke-linecap="round"/>
    </g>
    <g>
      <path d="M256.566,38.5 C283.241,38.5 296.578,72.282 296.578,133.482" fill="#FFFFFF"/>
      <path d="M256.566,38.5 C283.241,38.5 296.578,72.282 296.578,133.482" fill-opacity="0" stroke="#FFFFFF" stroke-width="12" stroke-linecap="round"/>
    </g>
  </g>
  <g id="メ，Layer_2">
    <g>
      <text transform="matrix(1, 0, 0, 1, 490, 331)">
        <tspan x="-293.795" y="7" font-family="ArialRoundedMTBold" font-size="91" fill="#FFFFFF">Nagano Cake</tspan>
      </text>
      <path d="M220.51,279.659 L245.882,318.049 L245.882,279.303 Q245.882,275.526 247.504,273.638 Q249.126,271.75 251.88,271.75 Q254.724,271.75 256.368,273.638 Q258.012,275.526 258.012,279.303 L258.012,330.535 Q258.012,339.111 250.903,339.111 Q249.126,339.111 247.704,338.6 Q246.282,338.089 245.038,336.978 Q243.793,335.867 242.727,334.379 Q241.661,332.89 240.594,331.335 L215.845,293.389 L215.845,331.557 Q215.845,335.29 214.112,337.2 Q212.379,339.111 209.668,339.111 Q206.869,339.111 205.181,337.178 Q203.492,335.245 203.492,331.557 L203.492,281.303 Q203.492,278.104 204.203,276.282 Q205.047,274.282 207.002,273.016 Q208.958,271.75 211.224,271.75 Q213.001,271.75 214.267,272.327 Q215.534,272.905 216.489,273.882 Q217.444,274.86 218.444,276.415 Q219.444,277.97 220.51,279.659 z M302.268,332.268 Q297.869,335.689 293.759,337.4 Q289.649,339.111 284.539,339.111 Q279.874,339.111 276.341,337.267 Q272.809,335.423 270.898,332.268 Q268.987,329.113 268.987,325.425 Q268.987,320.449 272.142,316.938 Q275.297,313.428 280.807,312.229 Q281.962,311.962 286.539,311.029 Q291.115,310.096 294.381,309.318 Q297.647,308.541 301.468,307.43 Q301.246,302.631 299.535,300.387 Q297.825,298.143 292.448,298.143 Q287.827,298.143 285.494,299.432 Q283.162,300.72 281.495,303.297 Q279.829,305.875 279.14,306.697 Q278.452,307.519 276.186,307.519 Q274.142,307.519 272.653,306.208 Q271.165,304.897 271.165,302.853 Q271.165,299.654 273.431,296.632 Q275.697,293.611 280.496,291.656 Q285.294,289.701 292.448,289.701 Q300.446,289.701 305.023,291.589 Q309.6,293.478 311.488,297.565 Q313.376,301.653 313.376,308.407 Q313.376,312.673 313.354,315.65 Q313.332,318.627 313.288,322.271 Q313.288,325.692 314.421,329.402 Q315.554,333.112 315.554,334.179 Q315.554,336.045 313.799,337.578 Q312.043,339.111 309.822,339.111 Q307.956,339.111 306.134,337.356 Q304.312,335.601 302.268,332.268 z M301.468,314.717 Q298.802,315.694 293.715,316.783 Q288.627,317.872 286.672,318.383 Q284.717,318.894 282.939,320.382 Q281.162,321.871 281.162,324.537 Q281.162,327.292 283.25,329.224 Q285.339,331.157 288.716,331.157 Q292.315,331.157 295.359,329.58 Q298.402,328.002 299.824,325.514 Q301.468,322.759 301.468,316.45 z M369.096,298.676 L369.096,333.912 Q369.096,339.955 367.808,344.31 Q366.519,348.664 363.675,351.508 Q360.832,354.352 356.233,355.729 Q351.634,357.106 344.791,357.106 Q338.526,357.106 333.594,355.351 Q328.662,353.596 325.996,350.819 Q323.33,348.042 323.33,345.109 Q323.33,342.888 324.84,341.488 Q326.351,340.088 328.484,340.088 Q331.15,340.088 333.149,342.443 Q334.127,343.643 335.171,344.865 Q336.215,346.087 337.482,346.953 Q338.748,347.82 340.525,348.242 Q342.303,348.664 344.613,348.664 Q349.323,348.664 351.923,347.353 Q354.522,346.042 355.566,343.688 Q356.61,341.333 356.788,338.644 Q356.966,335.956 357.055,330.002 Q354.255,333.912 350.59,335.956 Q346.924,338 341.858,338 Q335.771,338 331.217,334.89 Q326.662,331.779 324.218,326.181 Q321.774,320.582 321.774,313.25 Q321.774,307.785 323.263,303.386 Q324.751,298.987 327.506,295.966 Q330.261,292.944 333.86,291.411 Q337.459,289.878 341.77,289.878 Q346.924,289.878 350.701,291.856 Q354.478,293.833 357.721,298.054 L357.721,296.41 Q357.721,293.255 359.276,291.522 Q360.832,289.79 363.275,289.79 Q366.786,289.79 367.941,292.078 Q369.096,294.366 369.096,298.676 z M333.949,314.05 Q333.949,321.426 337.171,325.203 Q340.392,328.98 345.502,328.98 Q348.523,328.98 351.212,327.358 Q353.9,325.736 355.588,322.47 Q357.277,319.205 357.277,314.539 Q357.277,307.119 354.011,302.986 Q350.745,298.854 345.413,298.854 Q340.214,298.854 337.082,302.809 Q333.949,306.763 333.949,314.05 z M409.753,332.268 Q405.354,335.689 401.244,337.4 Q397.134,339.111 392.024,339.111 Q387.358,339.111 383.826,337.267 Q380.293,335.423 378.383,332.268 Q376.472,329.113 376.472,325.425 Q376.472,320.449 379.627,316.938 Q382.782,313.428 388.292,312.229 Q389.447,311.962 394.023,311.029 Q398.6,310.096 401.866,309.318 Q405.132,308.541 408.953,307.43 Q408.731,302.631 407.02,300.387 Q405.31,298.143 399.933,298.143 Q395.312,298.143 392.979,299.432 Q390.646,300.72 388.98,303.297 Q387.314,305.875 386.625,306.697 Q385.937,307.519 383.67,307.519 Q381.626,307.519 380.138,306.208 Q378.649,304.897 378.649,302.853 Q378.649,299.654 380.916,296.632 Q383.182,293.611 387.98,291.656 Q392.779,289.701 399.933,289.701 Q407.931,289.701 412.508,291.589 Q417.084,293.478 418.973,297.565 Q420.861,301.653 420.861,308.407 Q420.861,312.673 420.839,315.65 Q420.817,318.627 420.772,322.271 Q420.772,325.692 421.906,329.402 Q423.039,333.112 423.039,334.179 Q423.039,336.045 421.283,337.578 Q419.528,339.111 417.307,339.111 Q415.44,339.111 413.619,337.356 Q411.797,335.601 409.753,332.268 z M408.953,314.717 Q406.287,315.694 401.199,316.783 Q396.112,317.872 394.157,318.383 Q392.202,318.894 390.424,320.382 Q388.647,321.871 388.647,324.537 Q388.647,327.292 390.735,329.224 Q392.824,331.157 396.201,331.157 Q399.8,331.157 402.844,329.58 Q405.887,328.002 407.309,325.514 Q408.953,322.759 408.953,316.45 z M444.189,296.499 L444.189,297.965 Q447.388,293.744 451.187,291.767 Q454.986,289.79 459.918,289.79 Q464.717,289.79 468.494,291.878 Q472.271,293.966 474.137,297.788 Q475.337,300.009 475.692,302.586 Q476.048,305.164 476.048,309.163 L476.048,331.735 Q476.048,335.378 474.382,337.245 Q472.715,339.111 470.049,339.111 Q467.339,339.111 465.65,337.2 Q463.962,335.29 463.962,331.735 L463.962,311.518 Q463.962,305.519 462.296,302.342 Q460.629,299.165 455.653,299.165 Q452.409,299.165 449.743,301.098 Q447.077,303.031 445.833,306.408 Q444.944,309.118 444.944,316.539 L444.944,331.735 Q444.944,335.423 443.234,337.267 Q441.523,339.111 438.812,339.111 Q436.191,339.111 434.502,337.2 Q432.814,335.29 432.814,331.735 L432.814,296.677 Q432.814,293.211 434.325,291.5 Q435.835,289.79 438.457,289.79 Q440.057,289.79 441.345,290.545 Q442.634,291.3 443.411,292.811 Q444.189,294.322 444.189,296.499 z M533.545,314.45 Q533.545,319.871 531.856,324.448 Q530.168,329.024 526.969,332.312 Q523.77,335.601 519.326,337.356 Q514.883,339.111 509.329,339.111 Q503.819,339.111 499.42,337.333 Q495.021,335.556 491.8,332.246 Q488.578,328.936 486.912,324.426 Q485.246,319.916 485.246,314.45 Q485.246,308.94 486.934,304.364 Q488.623,299.787 491.777,296.543 Q494.932,293.3 499.42,291.545 Q503.908,289.79 509.329,289.79 Q514.838,289.79 519.326,291.567 Q523.814,293.344 527.013,296.632 Q530.212,299.92 531.879,304.453 Q533.545,308.985 533.545,314.45 z M521.37,314.45 Q521.37,307.03 518.104,302.897 Q514.838,298.765 509.329,298.765 Q505.774,298.765 503.063,300.609 Q500.353,302.453 498.887,306.052 Q497.42,309.651 497.42,314.45 Q497.42,319.205 498.865,322.759 Q500.309,326.314 502.997,328.202 Q505.685,330.091 509.329,330.091 Q514.838,330.091 518.104,325.936 Q521.37,321.782 521.37,314.45 z M622.19,317.427 Q622.19,320.538 620.657,324.159 Q619.124,327.78 615.836,331.268 Q612.548,334.756 607.438,336.934 Q602.328,339.111 595.53,339.111 Q590.375,339.111 586.154,338.133 Q581.933,337.156 578.49,335.09 Q575.046,333.023 572.158,329.646 Q569.581,326.581 567.759,322.781 Q565.937,318.982 565.026,314.672 Q564.115,310.362 564.115,305.519 Q564.115,297.654 566.404,291.434 Q568.692,285.213 572.958,280.792 Q577.223,276.371 582.955,274.06 Q588.687,271.75 595.174,271.75 Q603.083,271.75 609.26,274.904 Q615.436,278.059 618.724,282.702 Q622.012,287.346 622.012,291.478 Q622.012,293.744 620.413,295.477 Q618.813,297.21 616.547,297.21 Q614.014,297.21 612.748,296.01 Q611.481,294.811 609.926,291.878 Q607.349,287.035 603.861,284.635 Q600.373,282.236 595.263,282.236 Q587.132,282.236 582.311,288.412 Q577.49,294.588 577.49,305.963 Q577.49,313.562 579.623,318.605 Q581.755,323.648 585.666,326.136 Q589.576,328.625 594.819,328.625 Q600.506,328.625 604.439,325.803 Q608.371,322.981 610.371,317.516 Q611.215,314.939 612.459,313.317 Q613.703,311.695 616.458,311.695 Q618.813,311.695 620.501,313.339 Q622.19,314.983 622.19,317.427 z M663.869,332.268 Q659.47,335.689 655.36,337.4 Q651.25,339.111 646.14,339.111 Q641.474,339.111 637.942,337.267 Q634.409,335.423 632.499,332.268 Q630.588,329.113 630.588,325.425 Q630.588,320.449 633.743,316.938 Q636.897,313.428 642.407,312.229 Q643.562,311.962 648.139,311.029 Q652.716,310.096 655.982,309.318 Q659.248,308.541 663.069,307.43 Q662.847,302.631 661.136,300.387 Q659.425,298.143 654.049,298.143 Q649.428,298.143 647.095,299.432 Q644.762,300.72 643.096,303.297 Q641.43,305.875 640.741,306.697 Q640.052,307.519 637.786,307.519 Q635.742,307.519 634.254,306.208 Q632.765,304.897 632.765,302.853 Q632.765,299.654 635.031,296.632 Q637.297,293.611 642.096,291.656 Q646.895,289.701 654.049,289.701 Q662.047,289.701 666.624,291.589 Q671.2,293.478 673.089,297.565 Q674.977,301.653 674.977,308.407 Q674.977,312.673 674.955,315.65 Q674.933,318.627 674.888,322.271 Q674.888,325.692 676.021,329.402 Q677.154,333.112 677.154,334.179 Q677.154,336.045 675.399,337.578 Q673.644,339.111 671.422,339.111 Q669.556,339.111 667.734,337.356 Q665.913,335.601 663.869,332.268 z M663.069,314.717 Q660.403,315.694 655.315,316.783 Q650.228,317.872 648.272,318.383 Q646.317,318.894 644.54,320.382 Q642.763,321.871 642.763,324.537 Q642.763,327.292 644.851,329.224 Q646.939,331.157 650.316,331.157 Q653.916,331.157 656.959,329.58 Q660.003,328.002 661.425,325.514 Q663.069,322.759 663.069,316.45 z M717.5,333.557 L706.792,315.961 L700.215,322.182 L700.215,331.824 Q700.215,335.334 698.371,337.222 Q696.527,339.111 694.128,339.111 Q691.329,339.111 689.729,337.245 Q688.129,335.378 688.129,331.735 L688.129,280.014 Q688.129,275.971 689.685,273.86 Q691.24,271.75 694.128,271.75 Q696.927,271.75 698.571,273.66 Q700.215,275.571 700.215,279.303 L700.215,308.718 L713.856,294.411 Q716.389,291.745 717.722,290.767 Q719.055,289.79 720.966,289.79 Q723.232,289.79 724.743,291.234 Q726.253,292.678 726.253,294.855 Q726.253,297.521 721.321,301.964 L714.878,307.874 L727.32,327.425 Q728.697,329.602 729.297,330.735 Q729.897,331.868 729.897,332.89 Q729.897,335.778 728.32,337.445 Q726.742,339.111 724.165,339.111 Q721.943,339.111 720.744,337.911 Q719.544,336.711 717.5,333.557 z M769.843,317.427 L746.115,317.427 Q746.16,321.56 747.781,324.714 Q749.403,327.869 752.092,329.469 Q754.78,331.068 758.023,331.068 Q760.201,331.068 762,330.557 Q763.8,330.046 765.488,328.958 Q767.177,327.869 768.599,326.625 Q770.021,325.381 772.287,323.248 Q773.22,322.448 774.953,322.448 Q776.819,322.448 777.974,323.47 Q779.129,324.492 779.129,326.358 Q779.129,328.002 777.841,330.202 Q776.552,332.401 773.953,334.423 Q771.354,336.445 767.421,337.778 Q763.489,339.111 758.379,339.111 Q746.693,339.111 740.206,332.446 Q733.718,325.781 733.718,314.361 Q733.718,308.985 735.318,304.386 Q736.917,299.787 739.983,296.499 Q743.049,293.211 747.537,291.456 Q752.025,289.701 757.49,289.701 Q764.6,289.701 769.687,292.7 Q774.775,295.699 777.308,300.454 Q779.84,305.208 779.84,310.14 Q779.84,314.717 777.219,316.072 Q774.597,317.427 769.843,317.427 z M746.115,310.54 L768.11,310.54 Q767.666,304.319 764.755,301.231 Q761.845,298.143 757.09,298.143 Q752.558,298.143 749.648,301.276 Q746.737,304.408 746.115,310.54 z" fill-opacity="0" stroke="#FFFFFF" stroke-width="1"/>
    </g>
  </g>
</svg>
